<svg width="989.53" height="213.516" viewBox="0 0 989.53 213.516" xmlns="http://www.w3.org/2000/svg"><g id="svgGroup" stroke-linecap="round" fill-rule="evenodd" font-size="9pt" stroke="#ffffff" stroke-width="0.25mm" fill="#ffffff" style="stroke:#ffffff;stroke-width:0.25mm;fill:#ffffff">
<path d="M 105.7 39.6 L 105.7 47.8 L 104.5 151.6 L 104.5 153.6 A 7.138 7.138 0 0 1 104.453 154.369 Q 104.331 155.474 103.9 157.2 A 13.391 13.391 0 0 1 103.572 158.489 A 16.479 16.479 0 0 1 103.3 159.3 Q 102.9 160.4 102.5 161.6 A 9.383 9.383 0 0 1 101.514 163.411 A 6.912 6.912 0 0 1 99.7 165.2 Q 98.131 166.769 94.64 167.376 A 19.972 19.972 0 0 1 94.5 167.4 Q 88.9 168.6 84.3 166.4 Q 81.7 164.8 80.7 162.4 Q 80.3 162 79.9 161.2 Q 79.9 160.8 79.5 160 Q 79.1 159 78.9 157.9 A 154.022 154.022 0 0 1 78.6 156.194 A 174.638 174.638 0 0 1 78.5 155.6 Q 78.5 154.6 78.4 153.6 Q 78.3 152.6 78.1 151.6 A 7.308 7.308 0 0 1 77.881 150.976 Q 77.787 150.664 77.742 150.387 A 3.034 3.034 0 0 1 77.7 149.9 L 77.7 148.2 A 2.554 2.554 0 0 0 77.88 147.694 Q 78.09 146.872 78.1 145.347 A 23.428 23.428 0 0 0 78.1 145.2 L 78.3 129.4 L 78.5 104.2 L 67.7 104.2 L 27.1 104.4 L 26.7 151.6 L 26.7 153.6 A 7.138 7.138 0 0 1 26.653 154.369 Q 26.531 155.474 26.1 157.2 A 13.391 13.391 0 0 1 25.772 158.489 A 16.479 16.479 0 0 1 25.5 159.3 A 87.638 87.638 0 0 0 24.9 161.006 A 98.373 98.373 0 0 0 24.7 161.6 A 9.383 9.383 0 0 1 23.714 163.411 A 6.912 6.912 0 0 1 21.9 165.2 A 5.99 5.99 0 0 1 20.419 166.259 Q 18.996 167.001 16.84 167.376 A 19.972 19.972 0 0 1 16.7 167.4 Q 11.1 168.6 6.5 166.4 A 8.989 8.989 0 0 1 4.848 165.103 Q 4.156 164.425 3.49 163.539 A 18.986 18.986 0 0 1 2.7 162.4 Q 2.393 161.785 2.321 161.407 A 1.128 1.128 0 0 1 2.3 161.2 L 1.7 160 Q 1.3 159 1.1 157.9 A 154.022 154.022 0 0 1 0.8 156.194 A 174.638 174.638 0 0 1 0.7 155.6 Q 0.7 154.6 0.5 153.6 L 0.1 151.6 Q -0.087 150.1 0.077 148.424 A 17.255 17.255 0 0 1 0.1 148.2 L 0.1 145.2 L 0.3 129.4 L 0.7 100 A 420.494 420.494 0 0 0 0.899 87.648 A 459.884 459.884 0 0 0 0.9 86.8 L 0.9 72.8 Q 0.717 66.2 0.785 60.944 A 197.862 197.862 0 0 1 0.8 60 Q 0.897 54.58 1.275 47.85 A 443.222 443.222 0 0 1 1.3 47.4 L 1.3 46.6 Q 1.5 44.6 1.5 42.5 Q 1.5 40.4 1.7 38.2 Q 1.9 36.2 2.4 34.3 A 18.985 18.985 0 0 1 3.272 31.763 A 23.132 23.132 0 0 1 3.9 30.4 A 9.166 9.166 0 0 1 4.676 28.8 A 7.432 7.432 0 0 1 5.5 27.7 Q 6.5 26.6 7.9 25.6 A 15.41 15.41 0 0 1 11.5 24.306 A 13.068 13.068 0 0 1 14.3 24 A 44.318 44.318 0 0 1 15.444 24.014 Q 16.35 24.038 17.1 24.1 Q 18.3 24.2 19.5 24.4 A 6.261 6.261 0 0 1 22.137 25.258 Q 22.95 25.729 23.738 26.453 A 11.837 11.837 0 0 1 24.1 26.8 A 8.02 8.02 0 0 1 25.518 28.4 A 6.747 6.747 0 0 1 26.3 30 Q 27.066 31.991 27.362 33.63 A 12.356 12.356 0 0 1 27.5 34.6 Q 27.7 36 27.7 37.2 L 27.7 39.6 L 27.7 47.8 L 27.3 80.8 L 31 80.8 Q 33.1 80.8 35.9 80.6 Q 46.3 80.6 56.6 80.8 Q 66.9 81 78.3 81 L 78.5 81 A 1462.949 1462.949 0 0 1 78.556 67.95 A 1270.767 1270.767 0 0 1 78.6 63.8 A 516.412 516.412 0 0 1 78.919 51.05 A 593.876 593.876 0 0 1 79.1 46.6 Q 79.1 44.6 79.2 42.5 Q 79.3 40.4 79.5 38.2 Q 79.7 36.2 80.2 34.3 A 18.985 18.985 0 0 1 81.072 31.763 A 23.132 23.132 0 0 1 81.7 30.4 A 5.84 5.84 0 0 1 82.623 28.378 A 5.544 5.544 0 0 1 83.2 27.7 A 13.242 13.242 0 0 1 84.51 26.559 A 17.724 17.724 0 0 1 85.9 25.6 A 12.253 12.253 0 0 1 91.994 24 A 14.384 14.384 0 0 1 92.1 24 Q 93.7 24 95 24.1 Q 96.163 24.189 97.086 24.359 A 13.831 13.831 0 0 1 97.3 24.4 A 7.749 7.749 0 0 1 100.186 25.387 A 7.317 7.317 0 0 1 101.9 26.8 A 4.707 4.707 0 0 1 103.613 28.714 A 6.79 6.79 0 0 1 104.1 30 A 45.567 45.567 0 0 1 104.603 31.603 A 38.961 38.961 0 0 1 104.8 32.3 Q 105.1 33.4 105.5 34.6 Q 105.7 36 105.7 37.2 L 105.7 39.6 Z M 590.3 54.8 L 590.3 44.8 L 563.7 44.8 L 561 44.8 Q 559.7 44.8 558.3 44.6 A 6.855 6.855 0 0 0 557.098 44.249 A 9.18 9.18 0 0 0 556 44.1 Q 554.7 44 553.7 44 A 10.804 10.804 0 0 1 551.002 43.677 A 8.631 8.631 0 0 1 548.5 42.6 A 9.879 9.879 0 0 1 547.239 41.586 Q 546.013 40.438 544.7 38.6 A 15.776 15.776 0 0 1 544.4 37.78 Q 544.15 37.038 543.9 36.1 A 13.18 13.18 0 0 1 543.627 34.845 Q 543.5 34.075 543.5 33.4 Q 543.5 31.8 543.6 30.5 Q 543.7 29.2 544.3 28 A 13.776 13.776 0 0 1 547.347 24.203 A 12.706 12.706 0 0 1 549.7 22.6 A 21.844 21.844 0 0 1 552.513 21.282 A 19.408 19.408 0 0 1 553.3 21 A 11.337 11.337 0 0 1 556.844 20.4 A 10.806 10.806 0 0 1 556.9 20.4 L 561.3 20.4 A 21.513 21.513 0 0 0 562.467 20.628 Q 563.022 20.719 563.505 20.762 A 9.015 9.015 0 0 0 564.3 20.8 L 566.5 20.8 Q 567.075 20.417 568.202 20.401 A 6.979 6.979 0 0 1 568.3 20.4 L 571.1 20.4 L 591.7 20.4 L 591.1 13 Q 591.1 12 591.4 11.1 Q 591.7 10.2 592.1 9.2 Q 592.1 8.2 592.5 7.3 A 52.934 52.934 0 0 0 593.1 5.894 A 60.472 60.472 0 0 0 593.3 5.4 A 16.914 16.914 0 0 0 594.038 4.743 Q 594.822 4.007 595.849 2.907 A 72.55 72.55 0 0 0 596.5 2.2 Q 597.9 1.2 599.5 0.8 Q 601.1 0.4 603.1 0 A 18.418 18.418 0 0 1 605.703 0.198 Q 607.725 0.488 610.1 1.2 Q 611.5 2 612.9 3 Q 614.3 4 615.3 5 Q 616.7 6.2 617.2 7.9 Q 617.7 9.6 617.7 11.4 L 618.3 20.4 L 647.9 20.4 L 651.9 20.4 Q 653.9 20.4 655.9 20.8 Q 657.7 21.6 659.6 22.3 A 11.221 11.221 0 0 1 661.927 23.466 A 9.852 9.852 0 0 1 662.9 24.2 A 8.593 8.593 0 0 1 665.389 26.587 A 10.032 10.032 0 0 1 665.6 26.9 Q 666.7 28.6 667.3 30.8 Q 668.5 36.4 665.3 39.8 A 22.886 22.886 0 0 1 663.394 41.261 A 28.037 28.037 0 0 1 662.1 42.1 A 21.234 21.234 0 0 1 659.306 43.526 A 24.939 24.939 0 0 1 658.1 44 A 37.121 37.121 0 0 1 651.558 45.071 A 45.247 45.247 0 0 1 648.1 45.2 L 639.9 45.2 Q 638.5 45.2 636.8 45 Q 635.1 44.8 633.3 44.8 L 619.5 44.8 L 619.5 55.2 Q 622.1 56.8 624.9 58 A 2.408 2.408 0 0 0 625.63 58.495 A 2.957 2.957 0 0 0 625.9 58.6 Q 626.5 58.8 627.1 59.2 Q 627.7 59.6 628.3 59.9 A 11.008 11.008 0 0 1 629.331 60.489 A 12.298 12.298 0 0 1 629.5 60.6 Q 630.5 61.2 631.4 61.8 Q 632.3 62.4 633.3 62.8 Q 634.688 63.667 636.526 64.534 A 44.957 44.957 0 0 0 637.1 64.8 Q 639.1 66.2 640.8 67.3 A 37.013 37.013 0 0 0 643.459 68.862 A 42.975 42.975 0 0 0 644.5 69.4 Q 646.3 70.8 648.3 71.8 Q 650.3 72.8 652.1 74 Q 654.1 75 655.9 76 A 26.956 26.956 0 0 1 658.488 77.644 A 31.485 31.485 0 0 1 659.5 78.4 A 25.363 25.363 0 0 1 661.496 79.802 A 18.579 18.579 0 0 1 663.2 81.3 A 71.951 71.951 0 0 0 665.192 83.214 A 86.945 86.945 0 0 0 666.5 84.4 A 2.653 2.653 0 0 1 667.813 85.543 A 3.589 3.589 0 0 1 668 85.9 Q 668.5 87 668.9 88 Q 669.1 90.6 668.9 93.2 Q 668.5 95.4 666.7 97.4 A 3.374 3.374 0 0 1 665.438 98.843 Q 664.47 99.486 662.9 99.8 A 24.573 24.573 0 0 1 658.422 100.692 A 21.211 21.211 0 0 1 656.3 100.8 Q 653.1 100.8 649.7 99.8 Q 642.9 98.2 636.7 95 A 2361.287 2361.287 0 0 1 632.913 92.956 A 2097.288 2097.288 0 0 1 631.7 92.3 Q 629.3 91 626.7 89.8 Q 624.5 88.4 622.3 87.2 A 235.897 235.897 0 0 1 620.26 86.073 Q 618.875 85.3 617.3 84.4 Q 616.3 83.4 613.5 82.2 A 15.95 15.95 0 0 0 612.644 81.402 Q 612.241 81.054 611.855 80.777 A 8.953 8.953 0 0 0 611.6 80.6 Q 610.7 80 609.7 79.4 Q 608.1 78.4 606.7 77.6 Q 605.3 76.8 603.7 75.8 A 40.548 40.548 0 0 1 600.747 77.473 A 44.719 44.719 0 0 1 600.3 77.7 A 26.455 26.455 0 0 0 598.402 78.744 A 20.899 20.899 0 0 0 597.1 79.6 A 27.554 27.554 0 0 1 594.475 80.924 A 25.366 25.366 0 0 1 594.3 81 Q 592.9 81.6 591.7 82.2 Q 589.166 83.244 587.965 84.176 A 4.277 4.277 0 0 0 587.3 84.8 L 582.3 87.3 A 48.843 48.843 0 0 0 578.175 89.626 A 53.419 53.419 0 0 0 577.9 89.8 Q 575.7 91 573.2 92.3 Q 570.7 93.6 567.9 95 L 563.9 97 Q 561.9 98 559.7 99 Q 556.38 101.734 551.534 101.226 A 15.705 15.705 0 0 1 551.3 101.2 Q 549.5 101 547.8 100.3 Q 546.1 99.6 544.3 99 Q 541.532 97.616 540.261 93.839 A 16.196 16.196 0 0 1 539.9 92.6 L 539.9 90.2 Q 539.9 89.384 540.085 88.292 A 21.809 21.809 0 0 1 540.3 87.2 Q 540.9 85.6 541.5 84.2 Q 542.1 82.8 543.1 81.8 Q 544.1 80.6 545.3 79.7 Q 546.5 78.8 547.7 77.8 L 561.3 69.6 A 31.481 31.481 0 0 1 562.916 68.845 Q 563.71 68.503 564.428 68.255 A 16.812 16.812 0 0 1 564.9 68.1 A 22.518 22.518 0 0 0 566.312 67.609 Q 566.969 67.355 567.539 67.079 A 13.729 13.729 0 0 0 567.7 67 Q 569.1 65.95 570.348 65.359 A 10.337 10.337 0 0 1 570.7 65.2 Q 571.663 64.788 572.909 64.186 A 95.801 95.801 0 0 0 574.1 63.6 Q 575.7 62.2 577.6 61.2 A 404.188 404.188 0 0 0 579.123 60.394 Q 579.799 60.034 580.543 59.636 A 752.832 752.832 0 0 0 582.1 58.8 A 66.371 66.371 0 0 1 584.772 57.417 A 54.289 54.289 0 0 1 586.3 56.7 Q 588.3 55.8 590.3 54.8 Z M 909.2 32.3 A 55.652 55.652 0 0 0 906.478 30.041 Q 902.952 27.308 899.9 26 A 46.879 46.879 0 0 0 899.155 25.696 Q 891.581 22.677 883.853 22.677 A 39.699 39.699 0 0 0 882.5 22.7 Q 873.7 23 866.1 26.6 Q 858.5 30.2 852.8 36.8 Q 847.1 43.4 844.7 52 A 67.456 67.456 0 0 0 843.617 56.544 Q 842.058 64.293 842.6 71.5 Q 843.3 80.8 846.8 89.3 Q 850.3 97.8 856.4 105.7 A 122.919 122.919 0 0 0 858.747 108.645 A 136.972 136.972 0 0 0 870.3 121 Q 883.5 133.6 895.1 144.5 Q 903.8 152.675 910.363 158.656 A 726.971 726.971 0 0 0 914.5 162.4 A 25.966 25.966 0 0 0 916.994 164.3 A 19.389 19.389 0 0 0 920.1 166 A 4.513 4.513 0 0 0 920.466 166.138 Q 922.577 166.834 925.535 165.519 A 17.304 17.304 0 0 0 927.3 164.6 A 406.305 406.305 0 0 0 932.484 159.631 A 492.414 492.414 0 0 0 941.5 150.6 Q 948.9 143 955.9 134.8 Q 962.9 126.6 969 118.1 A 199.484 199.484 0 0 0 972.666 112.817 A 169.895 169.895 0 0 0 979.7 101.4 Q 985.7 90.6 988.2 78 A 74.109 74.109 0 0 0 988.652 75.501 Q 989.53 70.115 989.53 64.992 A 55.864 55.864 0 0 0 988.5 54.2 Q 986.3 43 978.5 34.8 Q 973.473 29.515 965.62 26.888 A 48.833 48.833 0 0 0 956.1 24.8 Q 949.5 24 943.6 25.2 Q 937.7 26.4 932.7 29.1 A 41.808 41.808 0 0 0 932.389 29.27 A 37.538 37.538 0 0 0 923.9 35.6 Q 920.1 39.4 917.9 43.8 A 45.343 45.343 0 0 0 915.216 39.235 A 35.865 35.865 0 0 0 909.2 32.3 Z M 511.7 103 L 511.3 104 A 4806.683 4806.683 0 0 0 506.553 114.544 A 4332.515 4332.515 0 0 0 505.9 116 Q 503.3 121.8 500.1 128.4 Q 496.9 134.8 494 140.9 Q 491.1 147 488.3 152.8 A 42.787 42.787 0 0 0 487.253 155.048 A 36.702 36.702 0 0 0 486.9 155.9 A 17.886 17.886 0 0 1 486.047 157.717 A 22.603 22.603 0 0 1 485.3 159 L 475.7 179.6 A 348.725 348.725 0 0 0 470.872 189.644 A 321.191 321.191 0 0 0 470.8 189.8 Q 468.5 194.8 465.7 199.8 Q 465.1 200.8 464.6 201.7 Q 464.1 202.6 463.7 203.6 A 15.495 15.495 0 0 1 462.007 205.938 Q 460.971 207.132 459.6 208.3 A 11.637 11.637 0 0 1 457.269 209.867 A 8.774 8.774 0 0 1 453.9 210.8 Q 448.5 211.2 444.5 207.6 A 9.942 9.942 0 0 1 440.833 203.841 A 11.869 11.869 0 0 1 440.7 203.6 A 8.306 8.306 0 0 1 440.182 201.972 Q 439.9 200.663 439.9 199 A 32.414 32.414 0 0 0 440.14 197.291 A 28.025 28.025 0 0 0 440.2 196.7 A 20.498 20.498 0 0 1 440.406 195.106 A 18.198 18.198 0 0 1 440.5 194.6 A 11.43 11.43 0 0 0 441.087 192.663 A 10.631 10.631 0 0 0 441.1 192.6 A 6.246 6.246 0 0 1 441.274 191.92 Q 441.381 191.584 441.52 191.311 A 3.005 3.005 0 0 1 441.7 191 A 12.031 12.031 0 0 1 441.909 190.477 Q 442.372 189.4 442.7 189.4 L 457.3 157.8 Q 456.3 155.6 455.3 153.3 A 675.135 675.135 0 0 0 454.406 151.254 Q 453.985 150.293 453.607 149.441 A 392.25 392.25 0 0 0 453.5 149.2 Q 450.9 143 448 136.1 Q 445.1 129.2 442.1 122.3 Q 439.1 115.4 435.9 108.8 Q 432.7 102.2 429.5 96.2 A 36.526 36.526 0 0 1 427.585 92.541 A 40.839 40.839 0 0 1 427.3 91.9 A 31.453 31.453 0 0 1 425.709 87.336 A 29.227 29.227 0 0 1 425.7 87.3 Q 425.1 85 425.3 82.6 A 9.168 9.168 0 0 1 426.089 79.619 A 12.343 12.343 0 0 1 427.1 77.8 A 11.449 11.449 0 0 1 428.691 75.5 A 8.8 8.8 0 0 1 431.3 73.5 A 11.229 11.229 0 0 1 436.387 72.293 A 11.976 11.976 0 0 1 436.8 72.3 Q 439.7 72.4 442.3 73.6 Q 444.9 74.8 446.5 76.8 Q 449.9 80.4 451.9 84.8 Q 453.9 89.2 455.7 93.8 Q 459.5 101.8 463.5 110.6 Q 467.5 119.4 471.5 127.8 L 481.9 105.8 A 129.528 129.528 0 0 0 484.131 101.113 A 113.066 113.066 0 0 0 484.8 99.6 Q 486.1 96.6 487.5 93.8 Q 489.1 90.4 490.6 86.8 A 39.613 39.613 0 0 1 493.308 81.444 A 35.402 35.402 0 0 1 494.1 80.2 A 15.383 15.383 0 0 1 494.494 79.461 Q 494.697 79.105 494.9 78.8 Q 495.3 78.2 495.7 77.4 A 53.44 53.44 0 0 1 496.89 75.868 Q 497.436 75.193 497.938 74.626 A 23.418 23.418 0 0 1 498.9 73.6 A 61.69 61.69 0 0 1 499.381 73.219 Q 500.075 72.675 500.6 72.3 A 3.949 3.949 0 0 1 501.578 71.797 A 5.187 5.187 0 0 1 502.3 71.6 Q 503.7 71.2 505 71.1 A 11.153 11.153 0 0 1 505.856 71.067 A 9.987 9.987 0 0 1 507.5 71.2 Q 508.875 71.613 510.628 72.309 A 67.335 67.335 0 0 1 512.3 73 A 8.797 8.797 0 0 1 516.85 77.107 A 11.027 11.027 0 0 1 516.9 77.2 A 9.976 9.976 0 0 1 518.392 80.99 Q 518.571 82.07 518.5 83.2 A 22.291 22.291 0 0 1 518.172 87.122 A 16.245 16.245 0 0 1 516.9 91.2 Q 516.542 92.095 515.944 93.469 A 167.061 167.061 0 0 1 515.8 93.8 Q 515.1 95.4 514.4 97.2 A 40.975 40.975 0 0 1 513.197 99.993 A 36.542 36.542 0 0 1 512.9 100.6 L 511.7 103 Z M 262.5 160 L 262.5 196.6 A 8.359 8.359 0 0 1 262.4 197.921 A 6.788 6.788 0 0 1 262.2 198.8 Q 261.9 199.8 261.9 200.8 Q 261.5 202.8 261 204.4 A 28.507 28.507 0 0 1 260.343 206.263 A 36.3 36.3 0 0 1 259.7 207.8 Q 258.9 209 258.1 210 A 23.409 23.409 0 0 1 256.817 211.469 A 27.18 27.18 0 0 1 256.3 212 Q 251.5 214.4 246.3 213 A 10.127 10.127 0 0 1 243.898 212.573 A 7.457 7.457 0 0 1 241.1 211 Q 239.3 209.2 238.5 207.2 Q 237.7 205.2 237.1 202.6 A 23.767 23.767 0 0 1 236.889 201.389 A 19.875 19.875 0 0 1 236.8 200.7 A 16.553 16.553 0 0 1 236.707 199.324 A 19.219 19.219 0 0 1 236.7 198.8 L 236.7 87.4 Q 236.7 86.2 236.8 84.9 A 40.509 40.509 0 0 1 237.006 82.894 A 45.744 45.744 0 0 1 237.1 82.2 A 15.591 15.591 0 0 1 238.035 78.075 A 17.867 17.867 0 0 1 238.3 77.4 A 10.539 10.539 0 0 1 244.359 71.1 A 15.149 15.149 0 0 1 245.7 70.6 A 33.489 33.489 0 0 1 252.443 69.208 Q 255.238 68.913 258.3 69 A 86.058 86.058 0 0 1 266.772 69.787 A 96.038 96.038 0 0 1 268.2 70 A 136.138 136.138 0 0 1 276.819 71.63 A 123.113 123.113 0 0 1 278 71.9 Q 282.7 73 286.5 74.2 Q 289.053 75.006 290.974 75.722 A 48.95 48.95 0 0 1 292.7 76.4 Q 298.5 78.8 303.3 83.3 Q 308.1 87.8 311.6 93.6 Q 315.1 99.4 317 106.1 Q 318.9 112.8 318.9 119.6 Q 319.1 129.8 314.2 138.8 A 29.499 29.499 0 0 1 304.15 149.474 A 40.06 40.06 0 0 1 298.3 152.6 Q 289.9 156 281 157.7 A 146.795 146.795 0 0 1 263.697 159.921 A 161.112 161.112 0 0 1 262.5 160 Z M 360.9 160 L 360.9 196.6 A 8.359 8.359 0 0 1 360.8 197.921 A 6.788 6.788 0 0 1 360.6 198.8 Q 360.3 199.8 360.3 200.8 Q 359.9 202.8 359.4 204.4 A 28.507 28.507 0 0 1 358.743 206.263 A 36.3 36.3 0 0 1 358.1 207.8 Q 357.3 209 356.5 210 A 23.409 23.409 0 0 1 355.217 211.469 A 27.18 27.18 0 0 1 354.7 212 Q 349.9 214.4 344.7 213 A 10.127 10.127 0 0 1 342.298 212.573 A 7.457 7.457 0 0 1 339.5 211 Q 337.7 209.2 336.9 207.2 Q 336.1 205.2 335.5 202.6 A 23.767 23.767 0 0 1 335.289 201.389 A 19.875 19.875 0 0 1 335.2 200.7 A 16.553 16.553 0 0 1 335.107 199.324 A 19.219 19.219 0 0 1 335.1 198.8 L 335.1 87.4 Q 335.1 86.2 335.2 84.9 A 40.509 40.509 0 0 1 335.406 82.894 A 45.744 45.744 0 0 1 335.5 82.2 A 15.591 15.591 0 0 1 336.435 78.075 A 17.867 17.867 0 0 1 336.7 77.4 A 10.539 10.539 0 0 1 342.759 71.1 A 15.149 15.149 0 0 1 344.1 70.6 A 33.489 33.489 0 0 1 350.843 69.208 Q 353.638 68.913 356.7 69 A 86.058 86.058 0 0 1 365.172 69.787 A 96.038 96.038 0 0 1 366.6 70 A 136.138 136.138 0 0 1 375.219 71.63 A 123.113 123.113 0 0 1 376.4 71.9 Q 381.1 73 384.9 74.2 Q 387.453 75.006 389.374 75.722 A 48.95 48.95 0 0 1 391.1 76.4 Q 396.9 78.8 401.7 83.3 Q 406.5 87.8 410 93.6 Q 413.5 99.4 415.4 106.1 Q 417.3 112.8 417.3 119.6 Q 417.5 129.8 412.6 138.8 A 29.499 29.499 0 0 1 402.55 149.474 A 40.06 40.06 0 0 1 396.7 152.6 Q 388.3 156 379.4 157.7 A 146.795 146.795 0 0 1 362.097 159.921 A 161.112 161.112 0 0 1 360.9 160 Z M 657.5 134.2 L 618.3 134.2 Q 618.3 135.8 618.4 138.2 Q 618.5 140.6 618.5 143 A 102.212 102.212 0 0 0 618.539 145.883 A 83.711 83.711 0 0 0 618.6 147.5 A 131.117 131.117 0 0 1 618.644 148.494 Q 618.682 149.461 618.695 150.188 A 37.025 37.025 0 0 1 618.7 150.8 L 618.7 155.2 A 28.841 28.841 0 0 1 618.623 157.24 Q 618.525 158.625 618.3 160.2 Q 617.9 162.2 617.4 164 Q 616.9 165.8 616.1 167.4 A 8.52 8.52 0 0 1 615.266 169.326 A 7.019 7.019 0 0 1 614.2 170.7 Q 612.9 172 611.3 173.2 A 8.06 8.06 0 0 1 609.76 174.198 A 10.895 10.895 0 0 1 608.3 174.8 A 11.337 11.337 0 0 1 604.756 175.4 A 10.806 10.806 0 0 1 604.7 175.4 Q 602.5 175.4 600.5 174.8 A 13.418 13.418 0 0 1 598.703 174.125 A 9.985 9.985 0 0 1 597.1 173.2 A 4.06 4.06 0 0 1 594.988 171.755 A 5.189 5.189 0 0 1 594.8 171.5 A 12.982 12.982 0 0 1 593.495 169.093 A 14.767 14.767 0 0 1 593.3 168.6 A 40.995 40.995 0 0 1 592.657 167.257 Q 592.281 166.431 592 165.7 Q 591.5 164.4 591.1 162.8 L 591.1 134.2 L 548.5 134.2 Q 546.3 134.2 544 134 A 14.342 14.342 0 0 1 541.697 133.618 A 11.279 11.279 0 0 1 539.9 133 Q 537.7 132.8 536 131.5 A 13.824 13.824 0 0 1 533.851 129.437 A 17.024 17.024 0 0 1 532.9 128.2 Q 531.9 126.6 531.2 124.8 A 6.431 6.431 0 0 1 530.777 123.028 Q 530.755 122.769 530.755 122.509 A 6.018 6.018 0 0 1 530.9 121.2 A 10.141 10.141 0 0 1 531.262 118.561 A 12.318 12.318 0 0 1 531.6 117.5 A 7.945 7.945 0 0 1 532.905 115.242 A 10.572 10.572 0 0 1 534.1 114 Q 534.745 113.032 536.692 112.064 A 19.678 19.678 0 0 1 537.7 111.6 Q 539.1 111.2 540.1 110.8 Q 541.1 110.4 542.3 110.4 Q 543.372 110.247 544.209 110.211 A 11.477 11.477 0 0 1 544.7 110.2 L 546.7 110.2 L 658.7 110.2 Q 659.9 109.933 661.056 109.933 A 9.787 9.787 0 0 1 662.2 110 Q 663.9 110.2 665.3 110.2 A 16.141 16.141 0 0 1 666.852 110.27 Q 668.063 110.388 669 110.7 Q 670.5 111.2 672.3 111.6 A 28.038 28.038 0 0 0 673.843 112.63 A 22.278 22.278 0 0 0 675 113.3 A 7.764 7.764 0 0 1 677.237 115.125 A 8.809 8.809 0 0 1 677.3 115.2 Q 678.9 117.8 678.9 121.8 A 11.925 11.925 0 0 1 678.512 124.933 A 8.26 8.26 0 0 1 675.3 129.6 Q 673.91 130.791 671.831 131.687 A 18.696 18.696 0 0 1 671.8 131.7 A 22.026 22.026 0 0 1 669.087 132.666 A 18.615 18.615 0 0 1 667.7 133 Q 664.9 133.4 662.6 133.7 Q 660.3 134 657.5 134.2 Z M 921 65 A 5.765 5.765 0 0 0 921.808 64.349 Q 923.264 62.943 923.9 60.4 A 21.911 21.911 0 0 1 924.225 59.289 Q 924.765 57.604 925.624 55.806 A 39.482 39.482 0 0 1 927.6 52.2 A 30.499 30.499 0 0 1 928.119 51.383 A 32.396 32.396 0 0 1 934.5 44.3 Q 938.7 40.8 944 39.1 A 17.291 17.291 0 0 1 949.314 38.274 Q 952.214 38.274 955.3 39.2 Q 959.448 40.398 962.62 42.256 A 20.91 20.91 0 0 1 968.7 47.5 Q 973.1 53.2 973.9 60.7 Q 974.338 64.805 973.877 69.211 A 51.15 51.15 0 0 1 972.5 76.7 Q 970.3 85.2 966.5 93.6 A 94.39 94.39 0 0 1 963.681 99.222 A 115.02 115.02 0 0 1 957.9 108.7 Q 952.7 116.4 946.7 123.9 Q 940.7 131.4 934.5 138.2 Q 928.3 145 922.7 150.4 Q 910.1 140.4 900.4 130 A 452.442 452.442 0 0 0 899.794 129.351 A 415.617 415.617 0 0 0 880.9 110.4 A 158.079 158.079 0 0 1 875.802 105.396 A 126.644 126.644 0 0 1 869.3 98.2 A 64.864 64.864 0 0 1 866.111 94.051 A 52.875 52.875 0 0 1 861.4 86 Q 858.5 79.8 857.9 73.2 A 34.102 34.102 0 0 1 857.762 70.111 Q 857.762 68.113 857.987 66.046 A 44.911 44.911 0 0 1 859.3 59.2 A 41.564 41.564 0 0 1 859.453 58.677 A 37.131 37.131 0 0 1 863.9 49 Q 866.9 44.4 871 41.7 A 20.713 20.713 0 0 1 873.961 40.08 A 23.17 23.17 0 0 1 880.4 38.3 A 21.326 21.326 0 0 1 883.195 38.119 Q 885.003 38.119 886.888 38.412 A 29.694 29.694 0 0 1 891.7 39.6 A 25.518 25.518 0 0 1 894.088 40.528 A 20.741 20.741 0 0 1 898.9 43.5 A 36.595 36.595 0 0 1 899.638 44.131 A 32.563 32.563 0 0 1 904.1 48.9 Q 906.3 51.8 907.7 54.9 Q 908.531 56.741 909.08 58.334 A 24.91 24.91 0 0 1 909.7 60.4 A 9.635 9.635 0 0 0 909.904 60.994 A 7.697 7.697 0 0 0 912.5 64.5 A 9.865 9.865 0 0 0 913.513 65.169 A 7.772 7.772 0 0 0 916.7 66.2 Q 918.9 66.4 921 65 Z M 702.7 119.2 L 804.7 119 A 51.132 51.132 0 0 1 805.957 118.973 Q 809.614 118.941 812.253 119.479 A 15.636 15.636 0 0 1 814.2 120 A 18.299 18.299 0 0 1 816.751 121.083 Q 818.088 121.783 819.106 122.652 A 10.235 10.235 0 0 1 819.7 123.2 Q 821.7 125.2 822.3 127.6 Q 822.9 130 822.9 132.4 L 822.9 155.6 Q 823.3 160 822.9 164.4 A 11.134 11.134 0 0 1 821.976 167.986 A 9.66 9.66 0 0 1 819.6 171.2 A 10.006 10.006 0 0 1 814.561 173.593 A 14.028 14.028 0 0 1 812.1 173.8 A 33.804 33.804 0 0 1 811.522 173.794 Q 810.717 173.78 809.373 173.732 A 297.302 297.302 0 0 1 808.5 173.7 A 29.568 29.568 0 0 1 807.309 173.632 Q 805.67 173.502 804.917 173.207 A 2.699 2.699 0 0 1 804.9 173.2 A 11.332 11.332 0 0 1 802.902 172.383 Q 801.706 171.746 800.855 170.858 A 7.145 7.145 0 0 1 800.8 170.8 Q 799.3 169.2 798.5 167.2 Q 797.7 165.2 797.5 162.9 Q 797.3 160.6 797.1 158.4 A 23.044 23.044 0 0 0 797.095 157.943 Q 797.081 157.268 797.033 156.077 A 254.271 254.271 0 0 0 797 155.3 Q 796.9 153 796.8 150.5 Q 796.7 148 796.6 145.8 Q 796.506 143.722 796.322 142.893 A 3.554 3.554 0 0 0 796.3 142.8 Q 795.818 142.639 793.978 142.478 A 74.467 74.467 0 0 0 793 142.4 A 46.3 46.3 0 0 0 791.476 142.317 Q 788.566 142.2 782.9 142.2 A 654.184 654.184 0 0 0 780.672 142.204 Q 776.571 142.218 775.213 142.288 A 14.269 14.269 0 0 0 775 142.3 A 18.837 18.837 0 0 0 774.483 142.341 Q 773.515 142.433 773.319 142.583 A 0.195 0.195 0 0 0 773.3 142.6 L 701.1 142.6 L 700.9 142.4 L 699.6 142 Q 698.483 141.656 697.144 141.017 A 27.141 27.141 0 0 1 696.7 140.8 A 12.272 12.272 0 0 1 694.739 139.566 A 15.185 15.185 0 0 1 693.6 138.6 A 5.34 5.34 0 0 1 691.939 135.339 A 6.892 6.892 0 0 1 691.9 135 A 25.672 25.672 0 0 1 691.713 132.994 Q 691.566 130.175 692.13 127.852 A 12.029 12.029 0 0 1 694.5 123 Q 696.9 120.2 699.7 119.7 A 384.19 384.19 0 0 1 700.359 119.583 Q 702.331 119.234 702.653 119.203 A 0.539 0.539 0 0 1 702.7 119.2 Z M 686.625 95.207 A 6.793 6.793 0 0 0 689.9 98.2 Q 691.9 99.2 694.2 99.2 Q 696.5 99.2 698.7 98.8 A 16.329 16.329 0 0 0 700.239 98.359 A 13.298 13.298 0 0 0 704.5 96 Q 706.9 94 709.1 91.4 A 2.001 2.001 0 0 1 709.111 91.383 Q 709.45 90.886 710.938 89.303 A 128.292 128.292 0 0 1 711.7 88.5 A 125.167 125.167 0 0 0 713.134 86.975 Q 713.88 86.168 714.684 85.273 A 221.474 221.474 0 0 0 716.7 83 Q 719.5 79.8 722.7 76.3 Q 725.9 72.8 728.7 69.9 Q 731.5 67 733.3 65.1 L 735.1 63.2 Q 741.5 71.6 747.6 79.7 Q 753.7 87.8 761.1 95.4 Q 763.9 98.2 767.7 98.7 Q 771.5 99.2 774.7 97.8 Q 777.9 96.4 779.8 93.3 Q 781.331 90.801 780.979 87.458 A 14.214 14.214 0 0 0 780.7 85.8 Q 779.7 80.6 776.8 76.1 Q 773.9 71.6 770.7 67.4 Q 766.7 61.8 762.1 57 A 48.444 48.444 0 0 1 760.969 55.778 A 52.353 52.353 0 0 1 754.1 46 A 24.981 24.981 0 0 0 753.472 44.961 A 27.546 27.546 0 0 0 750.1 40.7 Q 747.7 38.2 746.7 34.8 A 18.531 18.531 0 0 1 745.853 29.186 A 21.515 21.515 0 0 1 746 26.7 A 19.169 19.169 0 0 0 746.132 24.485 Q 746.132 21.453 745.1 18.8 A 8.876 8.876 0 0 0 744.62 17.856 A 5.995 5.995 0 0 0 740.7 14.9 Q 737.7 14.2 734.5 14.2 A 19.666 19.666 0 0 0 732.158 14.331 Q 729.443 14.657 727.8 15.8 Q 725.5 17.4 724.5 20.1 A 18.55 18.55 0 0 0 723.799 22.485 A 22.808 22.808 0 0 0 723.3 26.1 Q 723.1 29.4 722.9 32.8 Q 722.7 35 721.7 37 A 23.52 23.52 0 0 1 720.99 38.313 A 27.764 27.764 0 0 1 719.2 41 Q 717.7 43 716.1 44.8 Q 714.5 46.6 713.3 48.2 Q 709.9 52.6 706.5 56.8 L 699.7 65.2 A 55.757 55.757 0 0 1 699.557 65.381 Q 698.48 66.741 697.192 68.194 A 92.58 92.58 0 0 1 694.4 71.2 Q 691.3 74.4 688.9 78 Q 686.5 81.6 685.4 85.6 Q 684.788 87.827 685.012 90.054 A 13.044 13.044 0 0 0 685.9 93.6 A 9.906 9.906 0 0 0 686.625 95.207 Z M 145.1 82.2 Q 151.1 79.2 157.7 77.9 Q 164.3 76.6 170.8 77.3 Q 177.3 78 183.3 80.7 A 38.454 38.454 0 0 1 192.355 86.464 A 45.128 45.128 0 0 1 194.5 88.4 A 39.685 39.685 0 0 1 200.897 96.67 A 35.922 35.922 0 0 1 202.5 99.8 A 50.713 50.713 0 0 1 205.587 108.959 A 61.5 61.5 0 0 1 206.5 113.6 A 44.317 44.317 0 0 0 208.073 120.372 A 38.227 38.227 0 0 0 209.1 123.2 Q 210.9 127.6 213 132 Q 215.1 136.4 217 140.8 Q 218.9 145.2 220.1 150 A 15.812 15.812 0 0 1 220.47 153.366 A 14.93 14.93 0 0 1 219.4 158.9 A 8.101 8.101 0 0 1 214.327 163.709 A 12.44 12.44 0 0 1 212.5 164.2 A 10.644 10.644 0 0 1 210.548 164.411 Q 208.607 164.436 206.8 163.7 Q 204.1 162.6 201.9 160.5 Q 199.7 158.4 198 155.9 Q 196.3 153.4 194.9 151.2 A 42.854 42.854 0 0 1 190.11 156.516 A 32.645 32.645 0 0 1 184.9 160.5 A 29.141 29.141 0 0 1 177.921 163.547 A 39.39 39.39 0 0 1 171.9 164.8 Q 167.633 165.333 163.633 165.333 A 57.162 57.162 0 0 1 159.7 165.2 A 57.568 57.568 0 0 1 152.922 164.307 A 73.599 73.599 0 0 1 147.3 163 Q 138.7 160.8 133.2 155.3 Q 127.7 149.8 124.8 142.5 A 44.611 44.611 0 0 1 121.761 128.365 A 50.937 50.937 0 0 1 121.7 126.8 A 58.756 58.756 0 0 1 121.683 125.401 A 58.421 58.421 0 0 1 123.7 110.2 Q 126.5 99.4 132.1 92.6 Q 137.7 85.8 145.1 82.2 Z M 802.3 64.8 L 791.5 64.8 A 3383.177 3383.177 0 0 0 786.326 64.447 Q 783.544 64.259 781.1 64.1 A 8.752 8.752 0 0 1 774.587 60.749 A 11.417 11.417 0 0 1 773.9 59.8 Q 772.7 57.8 772.7 54.6 Q 772.7 52.166 772.932 50.31 A 20.173 20.173 0 0 1 773.1 49.2 Q 773.7 47 775.3 45.5 A 6.555 6.555 0 0 1 776.534 44.611 Q 777.858 43.854 779.943 43.256 A 28.793 28.793 0 0 1 780.9 43 A 4.407 4.407 0 0 1 781.35 42.919 Q 782.328 42.784 784.62 42.706 A 106.965 106.965 0 0 1 784.8 42.7 Q 787.9 42.6 791.5 42.5 Q 795.1 42.4 798.3 42.3 A 658.243 658.243 0 0 1 799.416 42.266 Q 801.473 42.205 802.187 42.2 A 16.832 16.832 0 0 1 802.3 42.2 L 802.3 29.2 A 32.383 32.383 0 0 1 802.167 26.267 A 32.296 32.296 0 0 1 802.2 24.8 Q 802.3 22.6 802.9 20.4 Q 803.3 18.8 803.7 17.4 Q 804.1 16 805.5 14.4 A 7.803 7.803 0 0 1 808.354 12.199 A 10.53 10.53 0 0 1 810 11.6 Q 812.84 10.817 816.159 11.184 A 20.563 20.563 0 0 1 816.3 11.2 A 16.482 16.482 0 0 1 819.898 12.082 A 14.227 14.227 0 0 1 821.7 12.9 Q 824.1 14.2 825.1 16.2 A 13.13 13.13 0 0 1 826.027 18.692 Q 826.35 19.902 826.518 21.301 A 23.684 23.684 0 0 1 826.6 22.1 A 287.817 287.817 0 0 1 826.702 23.318 Q 826.9 25.75 826.9 26.4 L 826.9 91.2 L 826.7 91.2 Q 826.7 91.371 826.554 92.271 A 74.454 74.454 0 0 1 826.5 92.6 A 12.159 12.159 0 0 1 826.294 93.569 Q 826.171 94.057 825.998 94.607 A 26.782 26.782 0 0 1 825.7 95.5 A 14.093 14.093 0 0 1 824.842 97.43 A 18.584 18.584 0 0 1 823.9 99 A 9.728 9.728 0 0 1 821.188 101.691 A 11.408 11.408 0 0 1 820.7 102 A 12.253 12.253 0 0 1 814.606 103.6 A 14.384 14.384 0 0 1 814.5 103.6 A 10.899 10.899 0 0 1 809.516 102.364 A 14.175 14.175 0 0 1 807.9 101.4 Q 805.5 99.8 804.5 97.4 Q 803.3 95.2 802.9 93 Q 802.5 90.8 802.3 88.6 L 802.3 64.8 Z M 150.1 105.6 Q 147.3 108.4 145.7 112.2 Q 144.1 116 143.8 120.2 A 27.199 27.199 0 0 0 143.731 122.138 A 27.812 27.812 0 0 0 144.5 128.6 A 23.278 23.278 0 0 0 146.219 133.459 A 19.99 19.99 0 0 0 147.7 136 A 10.272 10.272 0 0 0 149.787 138.126 Q 150.835 138.94 152.195 139.652 A 24.008 24.008 0 0 0 154.5 140.7 Q 159.3 142.6 164.5 143 Q 170.5 143.4 175 139.8 Q 179.5 136.2 181.8 130.7 Q 184.1 125.2 183.9 118.9 Q 183.7 112.6 180.5 107.4 Q 178.1 103.6 174.2 101.8 Q 170.3 100 165.9 99.9 A 24.188 24.188 0 0 0 165.35 99.894 A 24.591 24.591 0 0 0 157.2 101.3 A 20.582 20.582 0 0 0 153.082 103.244 A 16.632 16.632 0 0 0 150.1 105.6 Z M 262.7 122.6 L 262.7 136 A 82.589 82.589 0 0 0 269.261 135.441 A 98.061 98.061 0 0 0 272.4 135 Q 277.5 134.2 281.9 132.4 A 24.639 24.639 0 0 0 287.087 129.541 A 21.513 21.513 0 0 0 289.4 127.6 A 11.983 11.983 0 0 0 292.565 122.254 A 16.305 16.305 0 0 0 293.1 119.6 Q 293.61 116.028 292.941 113.147 A 12.242 12.242 0 0 0 291.8 110.1 Q 289.7 106.2 285.9 103.7 A 29.927 29.927 0 0 0 279.869 100.675 A 35.945 35.945 0 0 0 277.2 99.8 Q 272.3 98.4 267.5 97.8 A 2.855 2.855 0 0 0 267.107 97.703 Q 266.68 97.626 266.051 97.607 A 14.526 14.526 0 0 0 265.6 97.6 L 262.7 97.6 Q 262.7 104 262.8 109.9 A 238.106 238.106 0 0 1 262.833 113.933 Q 262.833 118.067 262.7 122.6 Z M 361.1 122.6 L 361.1 136 A 82.589 82.589 0 0 0 367.661 135.441 A 98.061 98.061 0 0 0 370.8 135 Q 375.9 134.2 380.3 132.4 A 24.639 24.639 0 0 0 385.487 129.541 A 21.513 21.513 0 0 0 387.8 127.6 A 11.983 11.983 0 0 0 390.965 122.254 A 16.305 16.305 0 0 0 391.5 119.6 Q 392.01 116.028 391.341 113.147 A 12.242 12.242 0 0 0 390.2 110.1 Q 388.1 106.2 384.3 103.7 A 29.927 29.927 0 0 0 378.269 100.675 A 35.945 35.945 0 0 0 375.6 99.8 Q 370.7 98.4 365.9 97.8 A 2.855 2.855 0 0 0 365.507 97.703 Q 365.08 97.626 364.451 97.607 A 14.526 14.526 0 0 0 364 97.6 L 361.1 97.6 Q 361.1 104 361.2 109.9 A 238.106 238.106 0 0 1 361.233 113.933 Q 361.233 118.067 361.1 122.6 Z" vector-effect="non-scaling-stroke"/></g></svg>